<svg version="1" xmlns="http://www.w3.org/2000/svg" width="933.333" height="933.333" viewBox="0 0 700.000000 700.000000"><path d="M0 350v350h700V0H0v350zm377.5-247c56.5 6.3 107.5 30.9 148.1 71.4 28.3 28.4 47.5 59.5 59.9 97.1C594.6 299 598 320.3 598 350c0 29.8-3.4 51.2-12.5 78.6-17.1 51.4-49.4 94.6-94 125.6C458 577.5 419.2 592 377 597c-10.9 1.3-43.1 1.3-54 0-46.9-5.5-89.7-23-126.9-51.8-12.7-9.8-34.5-32.1-44.3-45.2-27-36.4-42.9-75.6-48.4-120-1.8-14.7-1.8-45.3 0-60 5.8-46.2 22.5-86.5 51.4-124 15.2-19.7 43.2-44.6 65.7-58.3 30-18.2 66.1-30.7 100.5-34.6 10.7-1.2 45.9-1.3 56.5-.1z"/><path d="M331 207.6c-21.1 3.9-31.9 7.3-46 14.4-38.5 19.4-66.4 55.9-75.7 99.2-2.5 11.8-2.6 45.8 0 57.5 11 51.1 47.7 92.1 96.2 107.6 15.5 4.9 27.2 6.7 44.5 6.7s29.1-1.8 44.4-6.7c43.3-13.9 77.1-47.5 91.5-90.8 6-18.1 7.5-29.1 6.8-50.3-.7-24.5-3.9-37.6-14.2-58.7-18.9-38.9-54-66.5-97.5-76.7-6.6-1.5-12.9-2.1-28-2.3-10.7-.2-20.6-.1-22 .1z"/></svg>