<svg version="1" xmlns="http://www.w3.org/2000/svg" width="1064" height="1064" viewBox="0 0 798.000000 798.000000"><path d="M189.6 80.1c-1.6.4-5.1 1.1-7.7 1.4-7.9 1-27 6.1-37.6 10.1-18.2 6.8-40.8 18.7-55.3 29.3-14.4 10.5-33.1 28.8-43.1 42.1-6.6 8.9-12.9 17.8-12.9 18.4 0 .2-1.8 3.3-3.9 6.8-4.3 7.1-11.1 21-11.1 22.7 0 .6-.4 1.1-.8 1.1-.5 0-.9.6-1 1.2 0 .7-1.5 5.1-3.2 9.8-3.1 8.4-6.7 20.1-7.6 25-.3 1.3-1.2 5.5-2 9.3-.8 3.8-1.7 9.2-2.2 12-.9 6.8-.8 58.2.2 62.7.4 1.9.9 4.7 1.1 6.2.2 1.5.6 3.5.9 4.5.3 1 .7 2.9 1 4.3 1.5 8.8 7.3 27.2 12.1 39 3.7 8.8 15.6 31.5 17.4 33 .3.3 2.4 3.2 4.6 6.4 2.2 3.3 4.4 6.4 5 7 .5.6 2.2 2.7 3.6 4.6 5.4 7.2 22.3 24.7 29.2 30.4 2.2 1.7 5.3 4.3 7 5.8 1.8 1.5 3.5 2.8 3.9 2.8.4 0 1.3.6 2 1.3.7.7 3.3 2.7 5.8 4.4 2.5 1.8 5.7 4.2 7.3 5.5 1.5 1.3 3.9 3.3 5.5 4.5 16.8 13.4 29.9 23.9 30.9 24.8.6.5 2.6 2.1 4.4 3.5 1.8 1.4 3.7 2.9 4.3 3.5.6.5 2.7 2.2 4.7 3.7 1.9 1.4 4.6 3.5 6 4.7 1.3 1.2 8 6.6 14.9 12.2s13.4 10.8 14.5 11.8c1.1.9 3.4 2.6 5 3.9 1.7 1.3 4.6 3.6 6.5 5.2 1.9 1.6 12.5 10.1 23.5 19s20.9 16.9 22 17.8c1.1.9 4.3 3.5 7 5.6 2.8 2.2 5.5 4.5 6.1 5.1.7.5 2.7 2.2 4.5 3.7 11.1 8.7 17.6 13.9 18.9 15 1.6 1.4 13.9 11.3 15.5 12.5 4 3.1 12.1 9.9 12.3 10.5.2.5.8.8 1.2.8.5 0 2 1 3.3 2.3 1.3 1.2 3.2 2.9 4.3 3.7 4 3.1 26.9 21.5 27.4 22 .3.3 5 4.1 10.5 8.5 12.2 9.7 13.4 10.7 15 12.2.8.7 1.8 1.3 2.4 1.3.6 0 1.1.4 1.1.8s2.5 2.5 5.6 4.7c3.1 2.2 6.1 4.5 6.8 5.1 2.8 2.6 6 3.4 13.9 3.4 8.3 0 8.6-.1 14.8-4.2 6.6-4.4 9-6.2 11.8-8.8.9-.8 3.5-2.8 5.6-4.4 2.2-1.6 4.7-3.7 5.6-4.5.9-.9 3.1-2.7 4.9-4.1 2.8-2.1 11.1-8.8 19.5-15.8 2.6-2.2 22.7-18.5 24-19.5.5-.4 2.1-1.7 3.6-3 1.4-1.2 4.2-3.6 6.3-5.2 2.2-1.7 4.4-3.5 5-4 .6-.6 4.5-3.7 8.6-7s8-6.5 8.6-7c.6-.6 2.8-2.4 4.9-4 2.1-1.7 5.7-4.6 8-6.5 2.2-1.9 5.6-4.6 7.4-6 1.9-1.4 4.1-3.2 5-4 .9-.8 6.4-5.3 12.1-9.9 5.8-4.6 11-9 11.6-9.7.6-.8 1.6-1.4 2.2-1.4.6 0 1.2-.4 1.4-.8.2-.5 6.4-5.8 13.9-11.9 7.5-6 14.3-11.5 15-12.1.8-.7 3.4-2.8 5.9-4.8 2.5-2 6.3-5.1 8.5-6.9 2.2-1.8 8.1-6.6 13-10.6 5-4 9.2-7.6 9.3-8.1.2-.4 1-.8 1.7-.8s1.5-.4 1.7-.8c.2-.5 5.3-4.9 11.3-9.8 6.1-4.9 11.9-9.7 13-10.6 5.6-4.8 35.8-28.8 42.3-33.6 24.4-18 43.8-38.8 59.1-63.2 8.4-13.5 20.2-39.2 22.6-49.5.1-.6.5-1.7.8-2.5.6-1.4 2.8-9.3 3.2-11.5 1.1-5 2.6-12.5 3-14.5 1.6-7.5 2-15.8 2-37.5 0-25.9-.5-32.2-3.2-44-.3-1.7-.8-3.7-.9-4.5-1-6-1.9-9.5-4-16.5-1.4-4.4-2.9-8.9-3.4-10-.4-1.1-1.8-4.7-3.1-8-5.3-13.8-23.9-47.2-27-48.3-.5-.2-.9-.8-.9-1.4 0-2.4-21.5-25.8-33-35.9-5.4-4.7-20.7-15.9-21.8-15.9-.7 0-1.2-.3-1.2-.8 0-.4-1.5-1.5-3.3-2.6-1.7-1-4.8-2.8-6.7-3.9-14.4-8.3-40.7-19.3-53.5-22.4-3.9-.9-11-2.5-13-2.8-1.1-.2-4.5-.8-7.5-1.4-3-.5-7.3-1.3-9.5-1.7-6.4-1.1-50.5-1.3-50.5-.2 0 .5-.4.7-1 .3-.7-.4-16.8 1.7-21.5 2.9-.5.2-2.8.7-5 1.1-2.2.5-4.2 1-4.5 1-6 1.4-23.3 7.2-28.7 9.6-2.4 1-4.5 1.9-4.8 1.9-.7 0-17.7 8.4-20.5 10.1-19.5 12.2-20.6 12.9-26.7 17.9-10.5 8.5-13.2 10.9-15.8 13.5-12.4 12.3-22.9 15.9-36.2 12.4-6.5-1.7-13.6-6.8-26.3-19-2.4-2.3-15.4-12.2-21-15.9-1.2-.8-3.2-2.2-4.4-3.1-4.7-3.5-24.4-13.9-26.2-13.9-.7 0-1.4-.4-1.6-.8-.6-1.5-29.5-11.9-35.3-12.7-1.1-.1-4.4-1-7.3-1.8-2.9-.9-5.5-1.6-5.7-1.6-1.1 0-10.1-1.3-13-1.8-4.7-1-56.6-1.1-59.9-.2z"/></svg>